<?xml version="1.0" encoding="UTF-8"?>
<svg width="600" height="400" viewBox="0 0 600 400" fill="none" xmlns="http://www.w3.org/2000/svg">
  <!-- Background Elements -->
  <circle cx="300" cy="200" r="150" fill="#E8F5E9" opacity="0.5"/>
  <circle cx="400" cy="100" r="50" fill="#C8E6C9" opacity="0.3"/>
  <circle cx="150" cy="300" r="80" fill="#A5D6A7" opacity="0.2"/>
  
  <!-- Computer Screen -->
  <rect x="200" y="100" width="200" height="150" rx="10" fill="#FFFFFF" stroke="#0CAA41" stroke-width="4"/>
  <rect x="220" y="120" width="160" height="110" rx="5" fill="#F5F5F5"/>
  
  <!-- Search Bar -->
  <rect x="240" y="140" width="120" height="30" rx="15" fill="#FFFFFF" stroke="#0CAA41" stroke-width="2"/>
  <circle cx="250" cy="155" r="5" fill="#0CAA41"/>
  
  <!-- List Items -->
  <rect x="240" y="180" width="120" height="10" rx="5" fill="#E0E0E0"/>
  <rect x="240" y="200" width="100" height="10" rx="5" fill="#E0E0E0"/>
  
  <!-- Computer Stand -->
  <path d="M280 250 L320 250 L330 270 L270 270 Z" fill="#BDBDBD"/>
  <rect x="290" y="270" width="20" height="10" rx="2" fill="#9E9E9E"/>
  
  <!-- Decorative Elements -->
  <circle cx="450" cy="150" r="10" fill="#0CAA41" opacity="0.6"/>
  <circle cx="470" cy="180" r="5" fill="#0CAA41" opacity="0.4"/>
  <circle cx="430" cy="200" r="8" fill="#0CAA41" opacity="0.5"/>
  
  <circle cx="150" cy="120" r="8" fill="#0CAA41" opacity="0.5"/>
  <circle cx="180" cy="150" r="5" fill="#0CAA41" opacity="0.4"/>
  <circle cx="130" cy="170" r="10" fill="#0CAA41" opacity="0.6"/>
</svg> 